# xmcd
#
# Track frame offsets: 
#        150
#        4515
#        43827
#        67719
#        99118
#        141152
#
# Disc length: 1996 seconds
#
# Revision: 0
# Processed by: cddbd v1.4PL0 Copyright (c) Steve Scherf et al.
# Submitted via: ExactAudioCopy v0.95a3
#
DISCID=3e07ca06
DTITLE=Art Blakey  - A Night At Birdland Volume 1
DYEAR=1900
DGENRE=
TTITLE0=Announcement by Pee Wee Marq..
TTITLE1=Split Kick
TTITLE2=Once in a While
TTITLE3=Quicksilver
TTITLE4=A Night in Tunisia
TTITLE5=Mayreh
EXTD=
EXTT0=
EXTT1=
EXTT2=
EXTT3=
EXTT4=
EXTT5=
PLAYORDER=
